<svg width="40" height="40" viewBox="0 0 40 40" fill="none" xmlns="http://www.w3.org/2000/svg">
  <defs>
    <linearGradient id="activeTab" x1="14" y1="8" x2="26" y2="14" gradientUnits="userSpaceOnUse">
      <stop offset="0" stop-color="#2F80FF"/>
      <stop offset="1" stop-color="#1AA3FF"/>
    </linearGradient>

    <linearGradient id="inactiveTab" x1="0" y1="0" x2="1" y2="1">
      <stop offset="0" stop-color="#EEF2F8"/>
      <stop offset="1" stop-color="#DCE4F0"/>
    </linearGradient>

    <linearGradient id="panelBg" x1="4" y1="14" x2="34" y2="29" gradientUnits="userSpaceOnUse">
      <stop offset="0" stop-color="#F9FBFF"/>
      <stop offset="1" stop-color="#EEF3FA"/>
    </linearGradient>

    <linearGradient id="dropperBlue" x1="0" y1="0" x2="1" y2="1">
      <stop offset="0" stop-color="#4DB6FF"/>
      <stop offset="1" stop-color="#256BFF"/>
    </linearGradient>

    <linearGradient id="glass" x1="0" y1="0" x2="1" y2="1">
      <stop offset="0" stop-color="#FFFFFF"/>
      <stop offset="1" stop-color="#EAF1FA"/>
    </linearGradient>

    <linearGradient id="rubber" x1="0" y1="0" x2="1" y2="1">
      <stop offset="0" stop-color="#5A6578"/>
      <stop offset="1" stop-color="#2E3748"/>
    </linearGradient>

    <filter id="softShadow" x="1" y="4" width="38" height="33" filterUnits="userSpaceOnUse">
      <feOffset dy="1"/>
      <feGaussianBlur stdDeviation="1.2"/>
      <feColorMatrix type="matrix" values="0 0 0 0 0.15 0 0 0 0 0.22 0 0 0 0 0.34 0 0 0 0.16 0"/>
      <feBlend in="SourceGraphic"/>
    </filter>
  </defs>

  <!-- transparent background by default -->

  <!-- tabs -->
  <g filter="url(#softShadow)">
    <path d="M5.5 12.8V11C5.5 9.9 6.4 9 7.5 9H12.1C13 9 13.8 9.5 14.2 10.3L16 13H7.7C6.5 13 5.5 12.9 5.5 12.8Z"
          fill="url(#inactiveTab)" stroke="#D5DDEA" stroke-width="0.6"/>

    <path d="M13.4 13L15.1 10.1C15.5 9.4 16.3 9 17.1 9H22.9C23.7 9 24.5 9.4 24.9 10.1L26.6 13H13.4Z"
          fill="url(#activeTab)"/>

    <path d="M24 13L25.8 10.3C26.2 9.5 27 9 27.9 9H32.5C33.6 9 34.5 9.9 34.5 11V12.8C34.5 12.9 33.5 13 32.3 13H24Z"
          fill="url(#inactiveTab)" stroke="#D5DDEA" stroke-width="0.6"/>

    <circle cx="18.1" cy="10.9" r="0.95" fill="white" opacity="0.95"/>
    <circle cx="8.1" cy="11" r="0.85" fill="#B7C3D7"/>
    <circle cx="31.9" cy="11" r="0.85" fill="#B7C3D7"/>

    <!-- editor panel -->
    <rect x="4.5" y="13" width="31" height="15" rx="3.2" fill="url(#panelBg)" stroke="#D8E0EC" stroke-width="0.8"/>

    <!-- top edge -->
    <line x1="4.9" y1="14.3" x2="35.1" y2="14.3" stroke="#E2E8F2" stroke-width="0.7"/>

    <!-- code lines -->
    <rect x="7.2" y="17.2" width="3.2" height="1.05" rx="0.52" fill="#FF4D8D"/>
    <rect x="11.6" y="17.2" width="14.1" height="1.05" rx="0.52" fill="#C8D2E2"/>

    <rect x="7.2" y="19.5" width="3.2" height="1.05" rx="0.52" fill="#FFB62E"/>
    <rect x="11.6" y="19.5" width="13.2" height="1.05" rx="0.52" fill="#C8D2E2"/>

    <rect x="7.2" y="21.8" width="3.2" height="1.05" rx="0.52" fill="#27C7E8"/>
    <rect x="11.6" y="21.8" width="9.6" height="1.05" rx="0.52" fill="#C8D2E2"/>

    <rect x="7.2" y="24.1" width="3.2" height="1.05" rx="0.52" fill="#8A5CFF"/>
    <rect x="11.6" y="24.1" width="7.8" height="1.05" rx="0.52" fill="#C8D2E2"/>
  </g>
</svg>