<svg width="40" height="40" viewBox="0 0 40 40" fill="none" xmlns="http://www.w3.org/2000/svg">
  <defs>
    <linearGradient id="bg" x1="6" y1="4" x2="34" y2="36" gradientUnits="userSpaceOnUse">
      <stop offset="0" stop-color="#1F2530"/>
      <stop offset="1" stop-color="#090B10"/>
    </linearGradient>

    <linearGradient id="activeTab" x1="14" y1="8" x2="26" y2="17" gradientUnits="userSpaceOnUse">
      <stop offset="0" stop-color="#2EA7FF"/>
      <stop offset="1" stop-color="#0969FF"/>
    </linearGradient>

    <linearGradient id="accentBar" x1="8" y1="31" x2="32" y2="31" gradientUnits="userSpaceOnUse">
      <stop offset="0" stop-color="#FF3D7F"/>
      <stop offset="0.2" stop-color="#FF9F1C"/>
      <stop offset="0.4" stop-color="#FFE033"/>
      <stop offset="0.6" stop-color="#44D860"/>
      <stop offset="0.8" stop-color="#2EA7FF"/>
      <stop offset="1" stop-color="#7C5CFF"/>
    </linearGradient>

    <filter id="blueGlow" x="9" y="4" width="22" height="20" filterUnits="userSpaceOnUse">
      <feGaussianBlur stdDeviation="2.2" result="blur"/>
      <feColorMatrix in="blur" type="matrix"
                     values="0 0 0 0 0.05
                0 0 0 0 0.45
                0 0 0 0 1
                0 0 0 0.7 0"/>
      <feBlend in="SourceGraphic"/>
    </filter>
  </defs>

  <!-- Background app tile -->
  <rect x="3" y="4" width="34" height="32" rx="7" fill="url(#bg)"/>

  <!-- Top tab bar base -->
  <rect x="3" y="14" width="34" height="2" fill="#232833" opacity="0.9"/>

  <!-- Inactive left tab -->
  <path d="M6 10.5C6 9.1 7.1 8 8.5 8H13.2C14.3 8 15.3 8.7 15.7 9.7L16.5 14H6V10.5Z"
        fill="#343A47" opacity="0.9"/>

  <!-- Inactive right tab -->
  <path d="M23.5 14L24.3 9.7C24.7 8.7 25.7 8 26.8 8H31.5C32.9 8 34 9.1 34 10.5V14H23.5Z"
        fill="#343A47" opacity="0.9"/>

  <!-- Active tab glow -->
  <path d="M13 14L14.3 9.1C14.6 7.9 15.7 7 17 7H23C24.3 7 25.4 7.9 25.7 9.1L27 14H13Z"
        fill="#1677FF" opacity="0.45" filter="url(#blueGlow)"/>

  <!-- Active tab -->
  <path d="M13 14L14.3 9.1C14.6 7.9 15.7 7 17 7H23C24.3 7 25.4 7.9 25.7 9.1L27 14H13Z"
        fill="url(#activeTab)"/>

  <!-- Tiny active indicator -->
  <circle cx="17" cy="10.2" r="1.1" fill="white" opacity="0.9"/>

  <!-- Minimal eyedropper / color picker mark -->
  <g transform="translate(0.4 0)">
    <path d="M25.2 18.3L27.1 20.2L19.2 28.1L15.9 29.2L17 25.9L25.2 18.3Z"
          fill="#F8FAFF"/>
    <path d="M23.8 20.1L25.3 21.6L19.1 27.8L16.9 28.5L17.6 26.3L23.8 20.1Z"
          fill="#2388FF"/>
    <rect x="25.4" y="16.5" width="5.2" height="3.6" rx="1.4"
          transform="rotate(45 25.4 16.5)" fill="#F8FAFF"/>
  </g>

  <!-- Color accent bar -->
  <rect x="8" y="31" width="24" height="3" rx="1.5" fill="url(#accentBar)"/>

  <!-- Subtle border -->
  <rect x="3.5" y="4.5" width="33" height="31" rx="6.5"
        stroke="white" stroke-opacity="0.06"/>
</svg>